<svg width="73" height="72" viewBox="0 0 73 72" fill="none" xmlns="http://www.w3.org/2000/svg">
<rect x="0.982422" width="72" height="72" rx="36" fill="#EFECFF"/>
<g clip-path="url(#clip0_262_829)">
<path d="M38.6668 42.6667H35.3335C34.4168 42.6667 33.6668 41.9167 33.6668 41H22.0168V47.6667C22.0168 49.5 23.5168 51 25.3502 51H48.6668C50.5002 51 52.0002 49.5 52.0002 47.6667V41H40.3335C40.3335 41.9167 39.5835 42.6667 38.6668 42.6667ZM50.3335 27.6667H43.6668C43.6668 23.9833 40.6835 21 37.0002 21C33.3168 21 30.3335 23.9833 30.3335 27.6667H23.6668C21.8335 27.6667 20.3335 29.1667 20.3335 31V36C20.3335 37.85 21.8168 39.3333 23.6668 39.3333H33.6668V37.6667C33.6668 36.75 34.4168 36 35.3335 36H38.6668C39.5835 36 40.3335 36.75 40.3335 37.6667V39.3333H50.3335C52.1668 39.3333 53.6668 37.8333 53.6668 36V31C53.6668 29.1667 52.1668 27.6667 50.3335 27.6667ZM33.6668 27.6667C33.6668 25.8333 35.1668 24.3333 37.0002 24.3333C38.8335 24.3333 40.3335 25.8333 40.3335 27.6667H33.6502H33.6668Z" fill="#261D6B"/>
</g>
<defs>
<clipPath id="clip0_262_829">
<rect width="40" height="40" fill="white" transform="translate(16.9824 16)"/>
</clipPath>
</defs>
</svg>
