<svg width="73" height="72" viewBox="0 0 73 72" fill="none" xmlns="http://www.w3.org/2000/svg">
<rect x="0.982422" width="72" height="72" rx="36" fill="#EFECFF"/>
<g clip-path="url(#clip0_262_847)">
<path fill-rule="evenodd" clip-rule="evenodd" d="M42.2795 42.661C43.6881 41.8465 44.9187 40.7571 45.8981 39.4577C45.5824 38.9668 45.3578 38.423 45.2351 37.8524L45.1889 37.6387C45.0566 37.0286 44.7451 36.4718 44.2942 36.04C43.8433 35.6081 43.2736 35.3209 42.6583 35.215C37.6263 34.3407 37.6263 27.1181 42.6583 26.2414C43.2526 26.1391 43.8048 25.8675 44.2485 25.4591C44.6922 25.0507 45.0086 24.5229 45.1598 23.9391C43.9765 22.6497 42.5285 21.6313 40.9149 20.9537C39.3014 20.2761 37.5604 19.9552 35.8113 20.0131C34.0622 20.071 32.3463 20.5063 30.7811 21.2892C29.2159 22.0721 27.8385 23.1841 26.7431 24.5489C25.6477 25.9138 24.8602 27.4993 24.4347 29.1968C24.0092 30.8944 23.9556 32.6638 24.2777 34.384C24.5998 36.1042 25.2899 37.7344 26.3007 39.163C27.3115 40.5916 28.6192 41.7849 30.1342 42.661V45.5C30.1342 46.1441 30.3901 46.7618 30.8455 47.2173C31.301 47.6727 31.9187 47.9286 32.5628 47.9286H39.8485C40.4926 47.9286 41.1103 47.6727 41.5657 47.2173C42.0212 46.7618 42.2771 46.1441 42.2771 45.5L42.2795 42.661ZM30.1366 52.1786C30.1366 51.6955 30.3285 51.2322 30.6701 50.8906C31.0117 50.549 31.475 50.3571 31.9581 50.3571H40.4581C40.9411 50.3571 41.4044 50.549 41.746 50.8906C42.0876 51.2322 42.2795 51.6955 42.2795 52.1786C42.2795 52.6616 42.0876 53.1249 41.746 53.4665C41.4044 53.8081 40.9411 54 40.4581 54H31.9581C31.475 54 31.0117 53.8081 30.6701 53.4665C30.3285 53.1249 30.1366 52.6616 30.1366 52.1786ZM47.8166 24.1699C48.2611 22.1396 51.1511 22.1274 51.6125 24.1529L51.6343 24.25L51.6781 24.4394C51.9402 25.5488 52.5218 26.5569 53.351 27.339C54.1803 28.1212 55.2206 28.643 56.3433 28.84C58.4611 29.2091 58.4611 32.2497 56.3433 32.6189C55.2141 32.8167 54.1683 33.3431 53.3367 34.1324C52.5052 34.9216 51.9249 35.9385 51.6683 37.0559L51.6125 37.3036C51.1511 39.3314 48.2586 39.3193 47.8118 37.2866L47.7656 37.0753C47.5208 35.9536 46.9475 34.9303 46.1188 34.1357C45.29 33.3412 44.2435 32.8114 43.1125 32.614C40.9972 32.2473 40.9972 29.2116 43.1125 28.8424C44.2395 28.6464 45.283 28.1204 46.1109 27.331C46.9388 26.5416 47.5138 25.5243 47.7632 24.4079L47.7996 24.25L47.8166 24.1699Z" fill="#261D6B"/>
</g>
<defs>
<clipPath id="clip0_262_847">
<rect width="34" height="34" fill="white" transform="translate(24 20)"/>
</clipPath>
</defs>
</svg>
