<svg width="32" height="35" viewBox="0 0 32 35" fill="none" xmlns="http://www.w3.org/2000/svg">
<g filter="url(#filter0_d_262_61)">
<path d="M17.1 20.7C15.6333 20.7 14.3733 20.4067 13.32 19.82C12.28 19.22 11.48 18.38 10.92 17.3C10.36 16.2067 10.08 14.92 10.08 13.44C10.08 12.3333 10.24 11.34 10.56 10.46C10.88 9.56667 11.34 8.80667 11.94 8.18C12.54 7.54 13.2733 7.05333 14.14 6.72C15.02 6.37333 16.0067 6.2 17.1 6.2C17.8333 6.2 18.5533 6.29333 19.26 6.48C19.9667 6.66667 20.5867 6.93333 21.12 7.28C21.4 7.45333 21.5867 7.66667 21.68 7.92C21.7733 8.16 21.7933 8.4 21.74 8.64C21.6867 8.86667 21.5733 9.06 21.4 9.22C21.24 9.38 21.0333 9.47333 20.78 9.5C20.54 9.51333 20.2733 9.42667 19.98 9.24C19.5667 8.97333 19.12 8.78 18.64 8.66C18.16 8.54 17.6733 8.48 17.18 8.48C16.2333 8.48 15.4333 8.67333 14.78 9.06C14.1267 9.44667 13.6333 10.0067 13.3 10.74C12.9667 11.4733 12.8 12.3733 12.8 13.44C12.8 14.4933 12.9667 15.3933 13.3 16.14C13.6333 16.8867 14.1267 17.4533 14.78 17.84C15.4333 18.2267 16.2333 18.42 17.18 18.42C17.6867 18.42 18.1867 18.36 18.68 18.24C19.1733 18.1067 19.64 17.9067 20.08 17.64C20.3733 17.4667 20.6333 17.3933 20.86 17.42C21.1 17.4333 21.3 17.5133 21.46 17.66C21.62 17.8067 21.7267 17.9933 21.78 18.22C21.8333 18.4333 21.82 18.66 21.74 18.9C21.66 19.1267 21.5 19.3267 21.26 19.5C20.7267 19.8867 20.0867 20.1867 19.34 20.4C18.6067 20.6 17.86 20.7 17.1 20.7Z" fill="#5A45FE"/>
</g>
<defs>
<filter id="filter0_d_262_61" x="0.0800781" y="0.200001" width="31.7798" height="34.5" filterUnits="userSpaceOnUse" color-interpolation-filters="sRGB">
<feFlood flood-opacity="0" result="BackgroundImageFix"/>
<feColorMatrix in="SourceAlpha" type="matrix" values="0 0 0 0 0 0 0 0 0 0 0 0 0 0 0 0 0 0 127 0" result="hardAlpha"/>
<feOffset dy="4"/>
<feGaussianBlur stdDeviation="5"/>
<feComposite in2="hardAlpha" operator="out"/>
<feColorMatrix type="matrix" values="0 0 0 0 0.352941 0 0 0 0 0.270588 0 0 0 0 0.996078 0 0 0 0.5 0"/>
<feBlend mode="normal" in2="BackgroundImageFix" result="effect1_dropShadow_262_61"/>
<feBlend mode="normal" in="SourceGraphic" in2="effect1_dropShadow_262_61" result="shape"/>
</filter>
</defs>
</svg>
