<svg width="20" height="22" viewBox="0 0 20 22" fill="none" xmlns="http://www.w3.org/2000/svg">
<g clip-path="url(#clip0_262_55)">
<path d="M2.75 1.375C1.2332 1.375 0 2.6082 0 4.125V17.875C0 19.3918 1.2332 20.625 2.75 20.625H16.5C18.0168 20.625 19.25 19.3918 19.25 17.875V4.125C19.25 2.6082 18.0168 1.375 16.5 1.375H2.75ZM15.516 4.98438L11.0559 10.0805L16.3023 17.0156H12.1945L8.98047 12.809L5.29805 17.0156H3.25703L8.02656 11.5629L2.99492 4.98438H7.20586L10.1148 8.83008L13.475 4.98438H15.516ZM13.8918 15.7953L6.59141 6.14023H5.37539L12.7574 15.7953H13.8875H13.8918Z" fill="#CCC5FF"/>
</g>
<defs>
<clipPath id="clip0_262_55">
<rect width="19.25" height="22" fill="white"/>
</clipPath>
</defs>
</svg>
