<svg width="139" height="32" viewBox="0 0 139 32" fill="none" xmlns="http://www.w3.org/2000/svg">
<path fill-rule="evenodd" clip-rule="evenodd" d="M113.157 9.79811C113.685 10.7085 113.858 11.7429 113.914 12.9065L113.99 14.4553V25.2995L114.065 26.8536C114.216 29.3883 116.085 31.263 118.641 31.4219L120.188 31.4973V14.4579L120.263 12.9092C120.328 11.7617 120.497 10.7058 121.033 9.78734C122.752 6.82983 126.542 5.82514 129.502 7.53823C130.439 8.08233 131.218 8.86345 131.762 9.8062C132.287 10.7166 132.454 11.7698 132.519 12.9092L132.594 14.4553V25.3022L132.669 26.8563C132.828 29.4017 134.684 31.2764 137.248 31.4246L138.789 31.5V12.9119C138.789 6.06486 133.243 0.516161 126.396 0.516161C122.838 0.513467 119.447 2.0434 117.098 4.7127C114.747 2.04071 111.358 0.510776 107.8 0.510776C105.228 0.510776 102.838 1.2919 100.859 2.64137C99.6493 1.2919 96.953 0.510776 95.3988 0.510776V31.5L96.9476 31.4246C99.5388 31.2549 101.416 29.4287 101.516 26.8563L101.599 25.3022V14.4579L101.675 12.9092C101.739 11.7375 101.901 10.7112 102.432 9.79542C103.541 7.88301 105.586 6.70862 107.797 6.70862C110.003 6.70593 112.05 7.8857 113.157 9.79811ZM7.06941 31.4219L8.6182 31.4973H31.8581L31.7827 29.9512C31.5699 27.4058 29.7679 25.5419 27.2144 25.3749L25.6657 25.2995H11.7212L30.3093 6.70323L30.2339 5.15714C30.1127 2.58481 28.2353 0.726259 25.6657 0.580807L24.1169 0.50808L0.876953 0.5L0.952372 2.04879C1.15708 4.57264 2.986 6.47428 5.52063 6.61704L7.0748 6.69515H21.0166L2.42574 25.2968L2.50116 26.8456C2.652 29.4071 4.49708 31.2576 7.06941 31.4219ZM89.3087 5.04401C95.3585 11.0937 95.3611 20.9063 89.3087 26.9533C83.251 33.003 73.4438 33.003 67.386 26.9533C61.3363 20.9036 61.3363 11.0883 67.386 5.03862C70.2923 2.13229 74.2276 0.5 78.3352 0.5C82.4564 0.502694 86.4024 2.13498 89.3087 5.04401ZM84.9263 9.43179C88.5546 13.0627 88.5546 18.9481 84.9263 22.5817C81.2954 26.2099 75.4074 26.2099 71.7765 22.5817C68.1483 18.9508 68.1483 13.0627 71.7765 9.43179C75.4074 5.80359 81.2954 5.80359 84.9263 9.43179ZM45.8215 0.50808C49.9291 0.50808 53.8698 2.14306 56.7707 5.0467C62.8231 11.0964 62.8231 20.9117 56.7707 26.956C50.7129 33.0057 40.9057 33.0057 34.8479 26.956C28.7982 20.9063 28.7982 11.091 34.8479 5.04132C37.7543 2.13498 41.6896 0.502696 45.7972 0.502696H45.8188V0.50808H45.8215ZM52.3829 9.4264C56.0138 13.0573 56.0138 18.9454 52.3829 22.579C48.752 26.2072 42.8639 26.2072 39.233 22.579C35.6048 18.9481 35.6048 13.06 39.233 9.4291C42.8693 5.8009 48.752 5.80089 52.3829 9.4264Z" fill="#827EA3"/>
</svg>
