<svg width="148" height="48" viewBox="0 0 148 48" fill="none" xmlns="http://www.w3.org/2000/svg">
<path d="M36.7935 16.9548H19.7077V22.0246H31.826C31.2256 29.121 25.3124 32.1669 19.7281 32.1669C17.9591 32.1747 16.2061 31.83 14.5718 31.1529C12.9374 30.4758 11.4542 29.4799 10.209 28.2233C8.9637 26.9667 7.98123 25.4746 7.31892 23.8342C6.65662 22.1937 6.32775 20.4378 6.35151 18.6689C6.35151 10.9939 12.2933 5.08481 19.7445 5.08481C25.4925 5.08481 28.8797 8.74898 28.8797 8.74898L32.4279 5.07253C32.4279 5.07253 27.8698 0 19.5589 0C8.97579 0 0.789062 8.93185 0.789062 18.5788C0.789062 28.032 8.48997 37.2504 19.8264 37.2504C29.7981 37.2504 37.0978 30.4188 37.0978 20.3174C37.0978 18.1858 36.788 16.9548 36.788 16.9548H36.7935Z" fill="#827EA3"/>
<path d="M50.7914 13.2825C43.7796 13.2825 38.7549 18.7644 38.7549 25.1552C38.7549 31.6429 43.6268 37.2259 50.8733 37.2259C57.4319 37.2259 62.8047 32.2134 62.8047 25.2944C62.8047 17.3793 56.5544 13.2811 50.7914 13.2811V13.2825ZM50.8596 17.9852C54.3068 17.9852 57.5739 20.7732 57.5739 25.2644C57.5739 29.6587 54.3205 32.5273 50.8432 32.5273C47.0221 32.5273 44.0198 29.4676 44.0198 25.2289C44.0198 21.0803 46.9948 17.9852 50.8705 17.9852H50.8596Z" fill="#827EA3"/>
<path d="M76.9672 13.2825C69.9554 13.2825 64.9307 18.7644 64.9307 25.1552C64.9307 31.6429 69.8026 37.2259 77.049 37.2259C83.6077 37.2259 88.9805 32.2134 88.9805 25.2944C88.9805 17.3793 82.7302 13.2811 76.9672 13.2811V13.2825ZM77.0354 17.9852C80.4826 17.9852 83.7496 20.7732 83.7496 25.2644C83.7496 29.6587 80.4962 32.5273 77.019 32.5273C73.1979 32.5273 70.1956 29.4676 70.1956 25.2289C70.1956 21.0803 73.1706 17.9852 77.0463 17.9852H77.0354Z" fill="#827EA3"/>
<path d="M102.641 13.2961C96.205 13.2961 91.1475 18.9323 91.1475 25.259C91.1475 32.4645 97.0115 37.2436 102.529 37.2436C105.941 37.2436 107.756 35.8885 109.079 34.3341V36.695C109.079 40.8259 106.571 43.3001 102.785 43.3001C99.1281 43.3001 97.294 40.5802 96.6444 39.0382L92.0427 40.9487C93.6749 44.4014 96.961 48 102.824 48C109.238 48 114.099 43.9701 114.099 35.5173V14.0153H109.099V16.0432C107.556 14.3783 105.444 13.2961 102.644 13.2961H102.641ZM103.105 17.9907C106.26 17.9907 109.5 20.6845 109.5 25.2849C109.5 29.9616 106.265 32.5382 103.035 32.5382C99.6044 32.5382 96.4124 29.7542 96.4124 25.3286C96.4124 20.7323 99.7286 17.9907 103.105 17.9907Z" fill="#827EA3"/>
<path d="M136.447 13.2675C130.377 13.2675 125.28 18.0984 125.28 25.2221C125.28 32.7633 130.961 37.2354 137.017 37.2354C142.082 37.2354 145.205 34.4651 147.047 31.9814L142.908 29.2274C141.834 30.8923 140.038 32.5231 137.042 32.5231C133.677 32.5231 132.13 30.6808 131.17 28.8931L147.223 22.2334L146.404 20.2819C144.854 16.4608 141.235 13.2675 136.447 13.2675ZM136.656 17.8719C138.844 17.8719 140.417 19.0346 141.086 20.4293L130.365 24.9096C129.901 21.4405 133.19 17.8719 136.643 17.8719H136.656Z" fill="#827EA3"/>
<path d="M117.614 36.5257H122.887V1.23907H117.614V36.5257Z" fill="#827EA3"/>
</svg>
