<svg width="163" height="48" viewBox="0 0 163 48" fill="none" xmlns="http://www.w3.org/2000/svg">
<path fill-rule="evenodd" clip-rule="evenodd" d="M61.8811 21.0593C61.8811 16.5005 65.2611 13.3185 71.4104 13.3185C75.157 13.3185 78.2275 14.4953 79.891 15.6481C80.3323 15.9284 80.5042 16.4801 80.2984 16.9549L78.9442 19.7386C78.6938 20.193 78.0565 20.1348 77.7307 19.9706C76.5456 19.3802 74.6051 18.3837 72.8438 18.1994C72.4059 18.1533 71.9478 18.1295 71.4838 18.1394C69.9118 18.1735 68.6006 18.71 68.1363 19.8885C68.0427 20.1228 67.9923 20.3565 67.9875 20.5889C67.9469 22.1418 70.1419 22.702 72.8035 23.1489C77.7555 23.9831 81.4979 25.41 81.4979 30.4169C81.4979 34.6693 78.0365 38.5137 71.3171 38.3957C66.8739 38.3077 63.7222 36.8348 62.0323 35.3999C61.9754 35.3519 61.3318 34.7074 61.6758 33.9351C62.071 32.9383 62.7347 31.794 63.2582 31.1933C63.5494 30.8029 64.317 30.7412 64.7142 30.9853C66.107 31.8359 68.3794 33.1986 71.0387 33.2868L71.6555 33.2906C74.0318 33.2346 75.4694 32.3503 75.4387 30.8573C75.4125 29.5425 73.529 28.7757 70.5518 28.2196C65.7669 27.3332 61.9186 25.7844 61.9186 21.0556M105.379 27.5452C102.005 27.5892 98.912 28.4956 98.8224 31.0873C98.8224 33.1423 100.518 34.1529 102.902 34.0209C105.187 33.8049 106.93 32.8305 107.698 31.5393C107.983 31.0589 108.024 29.2681 108.007 28.5017C108.003 28.3413 107.675 28.0297 107.531 27.9713C106.814 27.6753 106.282 27.5831 105.378 27.5473M94.1528 17.1073C95.7309 15.7204 98.836 13.5612 103.845 13.6753C110.422 13.8093 113.898 16.8412 114.221 24.0753C114.354 27.0652 114.134 35.4057 114.077 37.4829C114.104 37.6249 114.057 37.7705 113.954 37.8725C113.903 37.923 113.84 37.9605 113.771 37.9818C113.702 38.0032 113.629 38.0078 113.558 37.9953L108.822 38.0053C108.242 37.9773 108.174 37.6953 108.166 37.3973L108.132 36.1605C108.126 35.9125 107.888 35.9205 107.826 35.9605C106.283 37.5617 103.754 38.3621 101.066 38.3621C96.9813 38.3621 92.9093 36.0009 92.9213 31.3241C92.9336 26.5353 96.3888 24.1721 100.184 23.6156C102.616 23.2594 105.356 23.5756 107.429 24.3861C107.561 24.438 107.832 24.3621 107.836 24.1778C107.844 23.5677 107.816 22.405 107.694 21.8525C107.388 20.4477 106.197 19.317 103.693 19.0109C103.178 18.9477 102.657 18.9341 102.139 18.9709C100.148 19.1249 97.7531 20.6517 96.7595 21.2221C96.5253 21.3561 96.1611 21.2581 96.0427 21.1081C95.4645 20.3721 94.0067 18.2221 93.8946 17.8781C93.7824 17.5341 93.9415 17.2477 94.1451 17.0676L94.1528 17.1073ZM116.351 26.0001C116.311 19.3201 121.047 13.6849 128.737 13.6329C133.535 13.6031 137.02 15.7401 137.636 16.7487C137.758 16.9849 137.696 17.1829 137.609 17.4212C136.987 18.6126 136.264 19.7482 135.446 20.8153C135.135 21.2073 134.795 20.8713 134.404 20.6149C133.314 19.9005 131.242 19.0277 129.204 19.0277C125.506 19.0277 122.749 21.5212 122.782 26.1061C122.81 30.5087 125.429 32.9241 129.216 33.0101C131.185 33.0581 133.095 31.9457 134.103 31.0351C134.424 30.7591 134.758 30.8949 135.127 31.1791C135.85 31.9055 136.886 33.0263 137.462 33.7804C137.839 34.2089 137.558 34.6292 137.422 34.7973C135.862 36.7381 132.849 38.3692 128.861 38.3913C120.513 38.4511 116.372 32.6799 116.333 25.9761M156.181 38.0953C156.572 38.0671 160.754 37.4985 162.039 37.2105C162.357 37.1385 162.471 36.8764 162.295 36.6143L157.72 29.8703L153.372 24.3932C153.222 24.1929 153.23 23.9929 153.393 23.8329L161.346 15.9961C162.063 15.2356 161.631 14.9057 161.025 14.7273C159.848 14.3833 157.946 13.9529 156.865 13.7266C156.409 13.6325 155.859 13.6666 155.439 14.0668L146.256 23.0223C145.95 23.3223 145.775 23.2559 145.773 22.826L145.576 3.60486C145.568 3.30454 145.202 3.07846 144.996 3.06886L140.201 3.05878C139.897 3.11238 139.658 3.34198 139.596 3.6391C139.352 7.2551 139.698 33.8004 139.844 37.5148C139.848 37.7745 140.053 37.9884 140.317 38.0071C141.37 38.0669 143.974 38.0631 145.191 38.041C145.79 38.041 145.863 37.6269 145.863 37.6269L145.953 30.5025C145.953 30.5025 146.014 30.1865 146.116 30.1025L148.238 27.9169C148.36 27.8009 148.551 27.809 148.673 27.9729C149.274 28.7693 150.989 31.3589 152.577 33.6721L155.495 37.8161C155.715 38.1242 155.972 38.1364 156.167 38.1303L156.181 38.0953Z" fill="#827EA3"/>
<path fill-rule="evenodd" clip-rule="evenodd" d="M85.0816 38.0931L89.4756 38.1011C89.6389 38.1111 89.7994 38.0559 89.922 37.9477C89.9821 37.8946 90.0309 37.83 90.0654 37.7576C90.1 37.6853 90.1196 37.6068 90.1232 37.5267C90.3878 32.3198 90.2736 7.52958 90.1067 3.61726C90.0926 3.27694 89.944 3.15086 89.7099 3.12094C88.651 2.98078 85.6334 3.01486 84.6662 3.2611C84.4878 3.2979 84.3598 3.45214 84.359 3.63118C84.1227 13.7208 84.2816 36.9825 84.3326 37.4229C84.3836 37.8632 84.6174 38.0773 85.0798 38.0933L85.0816 38.0931Z" fill="#827EA3"/>
<path fill-rule="evenodd" clip-rule="evenodd" d="M13.5767 30.6208C13.5767 27.8392 15.7175 25.6 18.3767 25.6C21.0359 25.6 23.1767 27.8392 23.1767 30.6208V42.9792C23.1767 45.7606 21.0359 48 18.3767 48C15.7175 48 13.5767 45.7606 13.5767 42.9792V30.6208Z" fill="#827EA3"/>
<path fill-rule="evenodd" clip-rule="evenodd" d="M31.3978 35.2C28.6163 35.2 26.377 33.0592 26.377 30.4C26.377 27.7408 28.6162 25.6 31.3978 25.6H43.7565C46.5379 25.6 48.7773 27.7408 48.7773 30.4C48.7773 33.0592 46.5381 35.2 43.7565 35.2H31.3978Z" fill="#827EA3"/>
<path fill-rule="evenodd" clip-rule="evenodd" d="M26.377 5.0208C26.377 2.2392 28.5178 0 31.177 0C33.8362 0 35.977 2.2392 35.977 5.0208V17.3792C35.977 20.1608 33.8362 22.4 31.177 22.4C28.5178 22.4 26.377 20.1608 26.377 17.3792V5.0208Z" fill="#827EA3"/>
<path fill-rule="evenodd" clip-rule="evenodd" d="M5.79766 22.4C3.01605 22.4 0.776855 20.2592 0.776855 17.6C0.776855 14.9408 3.01605 12.8 5.79766 12.8H18.1561C20.9377 12.8 23.1769 14.9408 23.1769 17.6C23.1769 20.2592 20.9377 22.4 18.1561 22.4H5.79766Z" fill="#827EA3"/>
<path fill-rule="evenodd" clip-rule="evenodd" d="M26.377 43.2C26.377 45.8592 28.5178 48 31.177 48C33.8362 48 35.977 45.8592 35.977 43.2C35.977 40.5408 33.8362 38.4 31.177 38.4H26.377V43.2Z" fill="#827EA3"/>
<path fill-rule="evenodd" clip-rule="evenodd" d="M43.9768 22.4H39.1768V17.6C39.1768 14.9408 41.3176 12.8 43.9768 12.8C46.636 12.8 48.7768 14.9408 48.7768 17.6C48.7768 20.2592 46.636 22.4 43.9768 22.4Z" fill="#827EA3"/>
<path fill-rule="evenodd" clip-rule="evenodd" d="M5.57686 25.6H10.3769V30.4C10.3769 33.0592 8.23606 35.2 5.57686 35.2C2.91766 35.2 0.776855 33.0592 0.776855 30.4C0.776855 27.7408 2.91766 25.6 5.57686 25.6Z" fill="#827EA3"/>
<path fill-rule="evenodd" clip-rule="evenodd" d="M23.1767 4.8V9.6H18.3767C15.7175 9.6 13.5767 7.4592 13.5767 4.8C13.5767 2.1408 15.7175 0 18.3767 0C21.0359 0 23.1767 2.1408 23.1767 4.8Z" fill="#827EA3"/>
</svg>
