<svg width="245" height="48" viewBox="0 0 245 48" fill="none" xmlns="http://www.w3.org/2000/svg">
<path d="M28.6663 9.02821L14.5221 18.0564L28.6663 27.0846L14.5221 36.1129L0.37793 27.0094L14.5221 17.9812L0.37793 9.02821L14.5221 0L28.6663 9.02821ZM14.4469 38.9718L28.5911 29.9436L42.7353 38.9718L28.5911 48L14.4469 38.9718ZM28.6663 27.0094L42.8105 17.9812L28.6663 9.02821L42.7353 0L56.8795 9.02821L42.7353 18.0564L56.8795 27.0846L42.7353 36.1129L28.6663 27.0094Z" fill="#827EA3"/>
<path d="M67.939 9.02825H79.3747C86.6725 9.02825 92.6913 13.2414 92.6913 22.8715V24.9029C92.6913 34.6082 87.0487 38.9718 79.6004 38.9718H67.939V9.02825ZM74.3339 14.4452V33.4797H79.2242C83.3622 33.4797 86.1459 30.7712 86.1459 24.7524V23.1725C86.1459 17.1536 83.2117 14.4452 78.9985 14.4452H74.3339ZM96.0769 14.7461H101.193L102.02 20.3888C102.999 16.5518 105.481 14.5204 109.995 14.5204H111.575V20.9906H108.942C103.751 20.9906 102.472 22.7963 102.472 27.9123V39.0471H96.1521V14.7461H96.0769ZM112.854 27.3856V26.7085C112.854 18.5831 118.046 14.1442 125.118 14.1442C132.34 14.1442 137.381 18.5831 137.381 26.7085V27.3856C137.381 35.3605 132.491 39.6489 125.118 39.6489C117.293 39.5737 112.854 35.3605 112.854 27.3856ZM130.911 27.3104V26.7085C130.911 22.1944 128.654 19.4859 125.042 19.4859C121.506 19.4859 119.174 21.9687 119.174 26.7085V27.3104C119.174 31.674 121.431 34.1568 125.042 34.1568C128.654 34.0815 130.911 31.674 130.911 27.3104ZM140.691 14.7461H145.958L146.56 19.3355C147.839 16.2508 150.547 14.1442 154.535 14.1442C160.704 14.1442 164.767 18.5831 164.767 26.7837V27.4609C164.767 35.4358 160.252 39.6489 154.535 39.6489C150.698 39.6489 148.064 37.9185 146.785 35.1348V47.3982H140.616L140.691 14.7461ZM158.372 27.3104V26.7837C158.372 21.9687 155.889 19.5612 152.578 19.5612C149.042 19.5612 146.71 22.2696 146.71 26.7837V27.2351C146.71 31.5235 148.967 34.232 152.503 34.232C156.115 34.1568 158.372 31.8245 158.372 27.3104ZM174.096 34.533L173.569 38.9718H168.152V6.62073H174.321V19.0345C175.676 15.8746 178.384 14.1442 182.221 14.1442C188.014 14.2195 192.303 18.2069 192.303 26.2571V27.0094C192.303 35.0596 188.24 39.6489 182.071 39.6489C178.008 39.5737 175.375 37.6928 174.096 34.533ZM185.832 27.0094V26.4076C185.832 21.9687 183.425 19.4859 180.039 19.4859C176.578 19.4859 174.171 22.2696 174.171 26.4828V27.0094C174.171 31.5235 176.503 34.1568 179.964 34.1568C183.651 34.1568 185.832 31.8245 185.832 27.0094ZM195.011 27.3856V26.7085C195.011 18.5831 200.202 14.1442 207.274 14.1442C214.497 14.1442 219.538 18.5831 219.538 26.7085V27.3856C219.538 35.3605 214.572 39.6489 207.274 39.6489C199.45 39.5737 195.011 35.3605 195.011 27.3856ZM213.143 27.3104V26.7085C213.143 22.1944 210.886 19.4859 207.274 19.4859C203.738 19.4859 201.406 21.9687 201.406 26.7085V27.3104C201.406 31.674 203.663 34.1568 207.274 34.1568C210.886 34.0815 213.143 31.674 213.143 27.3104ZM227.814 26.4076L219.312 14.7461H226.61L231.5 22.0439L236.466 14.7461H243.688L235.036 26.3323L244.14 38.9718H236.992L231.425 30.9217L226.008 38.9718H218.56L227.814 26.4076Z" fill="#827EA3"/>
</svg>
