<svg width="73" height="72" viewBox="0 0 73 72" fill="none" xmlns="http://www.w3.org/2000/svg">
<rect x="0.982422" width="72" height="72" rx="36" fill="#EFECFF"/>
<g clip-path="url(#clip0_262_821)">
<path d="M56.505 50.1818C56.505 50.9848 56.2247 51.6666 55.6641 52.2272L53.2322 54.6818C52.6413 55.2424 51.9519 55.5227 51.1641 55.5227C50.361 55.5227 49.6792 55.2424 49.1186 54.6818L40.8686 46.409C40.2928 45.8636 40.005 45.1818 40.005 44.3636C40.005 43.5605 40.3307 42.8333 40.9822 42.1818L35.1641 36.3636L32.3004 39.2272C32.0883 39.4393 31.8307 39.5454 31.5277 39.5454C31.2247 39.5454 30.9671 39.4393 30.755 39.2272C30.7853 39.2575 30.88 39.3484 31.0391 39.4999C31.1982 39.6515 31.2928 39.7499 31.3232 39.7954C31.3535 39.8409 31.4292 39.928 31.5504 40.0568C31.6716 40.1855 31.7474 40.2878 31.7777 40.3636C31.808 40.4393 31.8535 40.5416 31.9141 40.6704C31.9747 40.7992 32.0163 40.9242 32.0391 41.0454C32.0618 41.1666 32.0732 41.303 32.0732 41.4545C32.0732 42.0302 31.861 42.5454 31.4368 42.9999C31.3913 43.0454 31.2663 43.1818 31.0618 43.409C30.8572 43.6363 30.7133 43.7916 30.63 43.8749C30.5466 43.9583 30.4065 44.0833 30.2095 44.2499C30.0125 44.4166 29.8459 44.534 29.7095 44.6022C29.5732 44.6704 29.4065 44.7386 29.2095 44.8068C29.0125 44.8749 28.8156 44.909 28.6186 44.909C28.0125 44.909 27.4974 44.6969 27.0732 44.2727L17.8004 34.9999C17.3762 34.5757 17.1641 34.0605 17.1641 33.4545C17.1641 33.2575 17.1982 33.0605 17.2663 32.8636C17.3345 32.6666 17.4027 32.4999 17.4709 32.3636C17.5391 32.2272 17.6565 32.0605 17.8232 31.8636C17.9898 31.6666 18.1148 31.5265 18.1982 31.4431C18.2815 31.3598 18.4368 31.2159 18.6641 31.0113C18.8913 30.8068 19.0277 30.6818 19.0732 30.6363C19.5277 30.2121 20.0429 29.9999 20.6186 29.9999C20.7701 29.9999 20.9065 30.0113 21.0277 30.034C21.1489 30.0568 21.2739 30.0984 21.4027 30.159C21.5315 30.2196 21.6338 30.2651 21.7095 30.2954C21.7853 30.3257 21.8875 30.4015 22.0163 30.5227C22.1451 30.6439 22.2322 30.7196 22.2777 30.7499C22.3232 30.7802 22.4216 30.8749 22.5732 31.034C22.7247 31.1931 22.8156 31.2878 22.8459 31.3181C22.6338 31.106 22.5277 30.8484 22.5277 30.5454C22.5277 30.2424 22.6338 29.9848 22.8459 29.7727L30.755 21.8636C30.9671 21.6515 31.2247 21.5454 31.5277 21.5454C31.8307 21.5454 32.0883 21.6515 32.3004 21.8636C32.2701 21.8333 32.1754 21.7424 32.0163 21.5909C31.8572 21.4393 31.7625 21.3409 31.7322 21.2954C31.7019 21.2499 31.6262 21.1628 31.505 21.034C31.3838 20.9052 31.308 20.803 31.2777 20.7272C31.2474 20.6515 31.2019 20.5492 31.1413 20.4204C31.0807 20.2916 31.0391 20.1666 31.0163 20.0454C30.9936 19.9242 30.9822 19.7878 30.9822 19.6363C30.9822 19.0606 31.1944 18.5454 31.6186 18.0909C31.6641 18.0454 31.7891 17.909 31.9936 17.6818C32.1982 17.4545 32.3421 17.2992 32.4254 17.2159C32.5088 17.1325 32.6489 17.0075 32.8459 16.8409C33.0428 16.6742 33.2095 16.5568 33.3459 16.4886C33.4822 16.4204 33.6489 16.3522 33.8459 16.284C34.0428 16.2159 34.2398 16.1818 34.4368 16.1818C35.0428 16.1818 35.558 16.3939 35.9822 16.8181L45.255 26.0909C45.6792 26.5151 45.8913 27.0302 45.8913 27.6363C45.8913 27.8333 45.8572 28.0302 45.7891 28.2272C45.7209 28.4242 45.6527 28.5909 45.5845 28.7272C45.5163 28.8636 45.3989 29.0302 45.2322 29.2272C45.0656 29.4242 44.9406 29.5643 44.8572 29.6477C44.7739 29.731 44.6186 29.8749 44.3913 30.0795C44.1641 30.284 44.0277 30.409 43.9822 30.4545C43.5277 30.8787 43.0125 31.0909 42.4368 31.0909C42.2853 31.0909 42.1489 31.0795 42.0277 31.0568C41.9065 31.034 41.7815 30.9924 41.6527 30.9318C41.5239 30.8712 41.4216 30.8257 41.3459 30.7954C41.2701 30.7651 41.1678 30.6893 41.0391 30.5681C40.9103 30.4469 40.8232 30.3712 40.7777 30.3409C40.7322 30.3105 40.6338 30.2159 40.4822 30.0568C40.3307 29.8977 40.2398 29.803 40.2095 29.7727C40.4216 29.9848 40.5277 30.2424 40.5277 30.5454C40.5277 30.8484 40.4216 31.106 40.2095 31.3181L37.3459 34.1818L43.1641 39.9999C43.8156 39.3484 44.5428 39.0227 45.3459 39.0227C46.1338 39.0227 46.8232 39.303 47.4141 39.8636L55.6641 48.1136C56.2247 48.7045 56.505 49.3939 56.505 50.1818Z" fill="#261D6B"/>
</g>
<defs>
<clipPath id="clip0_262_821">
<rect width="40" height="40" fill="white" transform="translate(16.9824 16)"/>
</clipPath>
</defs>
</svg>
