<svg width="25" height="24" viewBox="0 0 25 24" fill="none" xmlns="http://www.w3.org/2000/svg">
<path d="M17.553 2.25H6.947C5.76758 2.25 4.63647 2.71852 3.8025 3.5525C2.96852 4.38647 2.5 5.51758 2.5 6.697V17.303C2.5 18.4824 2.96852 19.6135 3.8025 20.4475C4.63647 21.2815 5.76758 21.75 6.947 21.75H17.553C18.7324 21.75 19.8635 21.2815 20.6975 20.4475C21.5315 19.6135 22 18.4824 22 17.303V6.697C22 5.51758 21.5315 4.38647 20.6975 3.5525C19.8635 2.71852 18.7324 2.25 17.553 2.25ZM9.093 17.992C9.09614 18.0464 9.08811 18.1009 9.06942 18.1521C9.05072 18.2034 9.02176 18.2502 8.9843 18.2898C8.94684 18.3294 8.90167 18.361 8.85158 18.3825C8.80149 18.404 8.74752 18.4151 8.693 18.415H6.913C6.80566 18.4124 6.70362 18.3678 6.62883 18.2907C6.55403 18.2137 6.51244 18.1104 6.513 18.003V10.6C6.51153 10.5466 6.52079 10.4934 6.54023 10.4435C6.55967 10.3937 6.5889 10.3483 6.6262 10.31C6.66349 10.2717 6.70808 10.2413 6.75734 10.2205C6.8066 10.1997 6.85953 10.189 6.913 10.189H8.693C8.74647 10.189 8.7994 10.1997 8.84866 10.2205C8.89792 10.2413 8.94251 10.2717 8.9798 10.31C9.0171 10.3483 9.04633 10.3937 9.06577 10.4435C9.08521 10.4934 9.09447 10.5466 9.093 10.6V17.992ZM7.77 8.632C7.57729 8.63056 7.38674 8.59117 7.20925 8.51608C7.03176 8.441 6.87079 8.33169 6.73554 8.1944C6.60029 8.05711 6.49341 7.89452 6.421 7.71593C6.34858 7.53733 6.31206 7.34621 6.3135 7.1535C6.31494 6.96079 6.35433 6.77024 6.42942 6.59275C6.5045 6.41526 6.61381 6.25429 6.7511 6.11904C6.88839 5.98379 7.05098 5.87691 7.22957 5.8045C7.40817 5.73208 7.59929 5.69556 7.792 5.697C8.17452 5.70944 8.53703 5.87087 8.80219 6.14686C9.06734 6.42284 9.21415 6.79152 9.21128 7.17423C9.2084 7.55694 9.05609 7.92337 8.78682 8.19535C8.51755 8.46732 8.15266 8.6233 7.77 8.63M18.587 17.98C18.5865 18.081 18.5469 18.178 18.4764 18.2503C18.4058 18.3227 18.31 18.3649 18.209 18.368H16.33C16.2288 18.3649 16.1328 18.3226 16.0623 18.25C15.9918 18.1774 15.9522 18.0802 15.952 17.979V14.555C15.952 14.044 16.108 12.332 14.596 12.332C13.417 12.332 13.184 13.532 13.139 14.066V18.057C13.139 18.1584 13.0996 18.2558 13.029 18.3286C12.9585 18.4014 12.8623 18.4439 12.761 18.447H10.938C10.8347 18.4467 10.7358 18.4055 10.6629 18.3324C10.59 18.2593 10.549 18.1603 10.549 18.057V10.564C10.5521 10.4627 10.5946 10.3665 10.6674 10.296C10.7402 10.2254 10.8376 10.186 10.939 10.186H12.761C12.8624 10.186 12.9598 10.2254 13.0326 10.296C13.1054 10.3665 13.1479 10.4627 13.151 10.564V11.209C13.417 10.8196 13.7843 10.5103 14.2133 10.3143C14.6422 10.1183 15.1165 10.0432 15.585 10.097C18.62 10.097 18.609 12.932 18.609 14.544L18.587 17.98Z" fill="#CCC5FF"/>
</svg>
