<svg width="23" height="22" viewBox="0 0 23 22" fill="none" xmlns="http://www.w3.org/2000/svg">
<path d="M17.8268 1.67285H4.67285C3.16035 1.67285 1.92285 2.91035 1.92285 4.42285V17.5782C1.92285 19.0907 3.16035 20.3282 4.67285 20.3282H17.8282C19.3407 20.3282 20.5782 19.0907 20.5782 17.5782V4.42285C20.5768 2.91035 19.3407 1.67285 17.8268 1.67285ZM17.6501 11.6299H15.4364V19.6393H12.124V11.6299H10.4671V8.86891H12.124V7.21204C12.124 4.95979 13.059 3.61985 15.7196 3.61985H17.9313V6.38016H16.548C15.514 6.38016 15.4453 6.76723 15.4453 7.48704L15.4364 8.86891H17.9423L17.6501 11.6299Z" fill="#CCC5FF"/>
</svg>
