<svg width="25" height="24" viewBox="0 0 25 24" fill="none" xmlns="http://www.w3.org/2000/svg">
<path d="M13.2776 2C14.4026 2.003 14.9736 2.009 15.4666 2.023L15.6606 2.03C15.8846 2.038 16.1056 2.048 16.3726 2.06C17.4366 2.11 18.1626 2.278 18.7996 2.525C19.4596 2.779 20.0156 3.123 20.5716 3.678C21.0803 4.17773 21.4738 4.78247 21.7246 5.45C21.9716 6.087 22.1396 6.813 22.1896 7.878C22.2016 8.144 22.2116 8.365 22.2196 8.59L22.2256 8.784C22.2406 9.276 22.2466 9.847 22.2486 10.972L22.2496 11.718V13.028C22.252 13.7574 22.2444 14.4868 22.2266 15.216L22.2206 15.41C22.2126 15.635 22.2026 15.856 22.1906 16.122C22.1406 17.187 21.9706 17.912 21.7246 18.55C21.4738 19.2175 21.0803 19.8223 20.5716 20.322C20.0719 20.8307 19.4671 21.2242 18.7996 21.475C18.1626 21.722 17.4366 21.89 16.3726 21.94L15.6606 21.97L15.4666 21.976C14.9736 21.99 14.4026 21.997 13.2776 21.999L12.5316 22H11.2226C10.4929 22.0026 9.76312 21.9949 9.03359 21.977L8.83959 21.971C8.6022 21.962 8.36487 21.9517 8.12759 21.94C7.06359 21.89 6.33759 21.722 5.69959 21.475C5.03242 21.2241 4.42804 20.8306 3.92859 20.322C3.41954 19.8224 3.0257 19.2176 2.77459 18.55C2.52759 17.913 2.35959 17.187 2.30959 16.122L2.27959 15.41L2.27459 15.216C2.25616 14.4868 2.24782 13.7574 2.24959 13.028V10.972C2.24682 10.2426 2.25416 9.5132 2.27159 8.784L2.27859 8.59C2.28659 8.365 2.29659 8.144 2.30859 7.878C2.35859 6.813 2.52659 6.088 2.77359 5.45C3.02529 4.7822 3.41982 4.17744 3.92959 3.678C4.42875 3.16955 5.03278 2.77607 5.69959 2.525C6.33759 2.278 7.06259 2.11 8.12759 2.06C8.39359 2.048 8.61559 2.038 8.83959 2.03L9.03359 2.024C9.76278 2.00623 10.4922 1.99857 11.2216 2.001L13.2776 2ZM12.2496 7C10.9235 7 9.65174 7.52678 8.71406 8.46447C7.77638 9.40215 7.24959 10.6739 7.24959 12C7.24959 13.3261 7.77638 14.5979 8.71406 15.5355C9.65174 16.4732 10.9235 17 12.2496 17C13.5757 17 14.8474 16.4732 15.7851 15.5355C16.7228 14.5979 17.2496 13.3261 17.2496 12C17.2496 10.6739 16.7228 9.40215 15.7851 8.46447C14.8474 7.52678 13.5757 7 12.2496 7ZM12.2496 9C12.6436 8.99993 13.0337 9.07747 13.3977 9.22817C13.7617 9.37887 14.0924 9.5998 14.3711 9.87833C14.6497 10.1569 14.8707 10.4875 15.0215 10.8515C15.1724 11.2154 15.25 11.6055 15.2501 11.9995C15.2502 12.3935 15.1726 12.7836 15.0219 13.1476C14.8712 13.5116 14.6503 13.8423 14.3718 14.121C14.0932 14.3996 13.7626 14.6206 13.3986 14.7714C13.0347 14.9223 12.6446 14.9999 12.2506 15C11.4549 15 10.6919 14.6839 10.1293 14.1213C9.56666 13.5587 9.25059 12.7956 9.25059 12C9.25059 11.2044 9.56666 10.4413 10.1293 9.87868C10.6919 9.31607 11.4549 9 12.2506 9M17.5006 5.5C17.1691 5.5 16.8511 5.6317 16.6167 5.86612C16.3823 6.10054 16.2506 6.41848 16.2506 6.75C16.2506 7.08152 16.3823 7.39946 16.6167 7.63388C16.8511 7.8683 17.1691 8 17.5006 8C17.8321 8 18.1501 7.8683 18.3845 7.63388C18.6189 7.39946 18.7506 7.08152 18.7506 6.75C18.7506 6.41848 18.6189 6.10054 18.3845 5.86612C18.1501 5.6317 17.8321 5.5 17.5006 5.5Z" fill="#CCC5FF"/>
</svg>
