<svg width="167" height="34" viewBox="0 0 167 34" fill="none" xmlns="http://www.w3.org/2000/svg">
<path d="M4.11663 0.00124088C3.06323 0.00123885 2.05287 0.419161 1.30727 1.16329C0.56167 1.90743 0.141758 2.91697 0.139688 3.97037V29.4369C0.137349 29.9606 0.238573 30.4796 0.437537 30.964C0.636501 31.4485 0.92928 31.8888 1.29903 32.2597C1.66844 32.6307 2.10754 32.925 2.59108 33.1258C3.07462 33.3265 3.59307 33.4297 4.11663 33.4295H29.6222C30.1451 33.4292 30.6628 33.3258 31.1457 33.1251C31.6285 32.9243 32.067 32.6302 32.4359 32.2597C33.1807 31.5099 33.5972 30.495 33.594 29.4382V3.97167C33.5926 2.9185 33.1735 1.90888 32.4287 1.16429C31.6839 0.419709 30.6741 0.000972951 29.6209 -6.10352e-05L4.11663 0.00124088ZM115.932 0.0025428V26.407C115.932 31.4768 118.746 33.6197 123.22 33.6197C124.145 33.6544 125.07 33.561 125.969 33.3422V27.3983C125.631 27.4361 125.291 27.4517 124.95 27.4452C123.771 27.4452 122.806 26.9254 122.806 25.4626V0.0025428H115.932ZM130.269 0.0025428V26.407C130.269 31.4768 133.088 33.6197 137.564 33.6197C138.494 33.6558 139.424 33.5624 140.328 33.3422V27.3983C139.992 27.4358 139.654 27.4514 139.316 27.4452C138.115 27.4452 137.143 26.9254 137.143 25.4626V0.0025428H130.269ZM46.7545 2.4502V8.91127H54.414V33.4308H61.7986V8.91257H69.4542V2.4515L46.7545 2.4502ZM7.65329 6.16922H13.2273C13.5778 6.17059 13.9137 6.31047 14.1616 6.55837C14.4095 6.80627 14.5494 7.14211 14.5507 7.4927L14.5677 24.0804C14.5666 24.2554 14.5309 24.4285 14.4627 24.5897C14.3945 24.7509 14.2952 24.897 14.1704 25.0196C14.0462 25.1426 13.8989 25.2398 13.7371 25.3057C13.5753 25.3717 13.402 25.405 13.2273 25.4039H7.65198C7.30233 25.4022 6.96757 25.2622 6.72081 25.0145C6.47406 24.7667 6.33536 24.4314 6.33502 24.0818V7.49139C6.33502 6.76192 6.92381 6.17182 7.65329 6.16922ZM20.5168 6.16922H26.0882C26.8177 6.17313 27.409 6.76322 27.409 7.4927L27.4286 16.4639C27.4286 16.817 27.2853 17.1595 27.0339 17.407C26.9093 17.53 26.7616 17.6272 26.5993 17.6929C26.437 17.7587 26.2633 17.7917 26.0882 17.79H20.5168C20.1656 17.7883 19.8293 17.6481 19.581 17.3997C19.3327 17.1514 19.1924 16.8151 19.1907 16.4639V7.49139C19.1924 7.14058 19.3328 6.80469 19.5813 6.55699C19.8297 6.3093 20.166 6.1699 20.5168 6.16922ZM100.539 8.80575C93.1869 8.80575 88.4766 14.1387 88.4766 21.5872C88.4766 29.321 92.5395 33.914 101.72 33.914C104.443 33.9365 107.146 33.4538 109.693 32.4903V26.7118C107.335 27.4673 104.681 28.2176 101.959 28.2176C98.3037 28.2176 95.7596 27.0166 95.1383 23.5438C97.0506 23.7523 98.9723 23.8645 100.896 23.8798C106.126 23.8798 110.541 22.4795 110.541 17.4149C110.541 12.5013 106.001 8.80575 100.539 8.80575ZM155.295 8.81617C147.911 8.81617 143.624 13.9147 143.624 21.3645C143.624 28.7647 147.959 34 155.295 34C162.632 34 166.877 28.8286 166.877 21.3645C166.877 13.9004 162.68 8.81617 155.295 8.81617ZM85.2486 8.96598C81.9738 8.99594 80.0707 10.8848 78.8553 13.9342V9.31508H72.0295V33.4308H78.8553V20.7939C78.8553 16.9303 81.0946 15.7501 85.9182 16.1253V8.98421C85.6953 8.96994 85.472 8.96385 85.2486 8.96598ZM100.398 14.0671C102.334 14.0671 103.888 15.3828 103.888 17.1791C103.888 19.4887 101.452 20.2116 98.6437 20.2116C97.4485 20.2057 96.2554 20.1103 95.0744 19.9264C95.1624 18.8006 95.4855 17.7059 96.0228 16.7127C96.453 15.925 97.0852 15.2661 97.8544 14.8036C98.6236 14.3412 99.5021 14.0919 100.4 14.0814L100.398 14.0671ZM155.295 14.932C158.715 14.932 160.188 17.7353 160.188 21.3645C160.188 24.9936 158.752 27.8698 155.295 27.8698C151.838 27.8698 150.317 24.991 150.317 21.3645C150.317 17.7301 151.877 14.932 155.295 14.932Z" fill="#827EA3"/>
</svg>
